<?xml version="1.0" encoding="utf-8"?>
<!-- Generator: Adobe Illustrator 22.1.0, SVG Export Plug-In . SVG Version: 6.00 Build 0)  -->
<svg version="1.1" id="Lag_1" xmlns="http://www.w3.org/2000/svg" xmlns:xlink="http://www.w3.org/1999/xlink" x="0px" y="0px"
	 viewBox="0 0 775.1 200.7" style="enable-background:new 0 0 775.1 200.7;" xml:space="preserve">
<style type="text/css">
	.st0{fill:#4C585C;}
	.st1{fill:#BBC188;}
	.st2{fill:#4D595C;}
	.st3{fill:#BB6B66;}
	.st4{fill:#767E3D;}
</style>
<title>rootsfood_logo_black</title>
<rect y="189.4" class="st0" width="775.1" height="11.3"/>
<polygon class="st1" points="50.5,156.8 119.8,156.8 85.1,122.6 "/>
<polygon class="st2" points="0,156.8 34.6,156.8 0,122.6 "/>
<polygon class="st3" points="137.8,156.8 207,156.8 172.4,122.6 "/>
<polygon class="st4" points="223.8,156.8 293.1,156.8 258.5,122.6 "/>
<polygon class="st2" points="311.1,156.8 380.3,156.8 345.7,122.6 "/>
<polygon class="st1" points="395.8,156.8 465.1,156.8 430.5,122.6 "/>
<polygon class="st3" points="483.1,156.8 552.3,156.8 517.7,122.6 "/>
<polygon class="st4" points="567.2,156.8 636.4,156.8 601.8,122.6 "/>
<polygon class="st2" points="654.4,156.8 723.7,156.8 689,122.6 "/>
<polygon class="st1" points="740.5,156.8 775.1,156.8 775.1,122.6 "/>
<polygon class="st0" points="0,64.1 41.5,105.6 85.1,62.1 127.5,105.6 172.4,62.1 214,105.6 258.5,62.1 301,105.6 343.5,62.1
	387.5,105.6 430.5,62.1 472.5,105.6 517.7,62.1 559,105.6 601.8,62.1 645.5,105.6 689,62.1 732,105.6 775.1,62.1 775.1,79.6
	732,122.6 689,79.1 645.5,122.6 601.8,78.6 559.5,122.6 517.7,78.6 473,122.6 430.5,79.1 387.5,122.6 343,78.6 300,122.6
	258.5,78.6 214,122.6 172.4,78.6 127,122.6 85.1,78.6 41.5,122.6 0,80.1 "/>
<path class="st0" d="M18.2,44h6.7V9.2h-6.7V1.7h24.1c14.7,0,20.3,8.1,20.3,15.7c0,5.8-3.3,11.1-10.1,13.3L60,44h6.1v7.5H53.6
	L43.3,33.3h-8.9V44h6.7v7.5H18.2V44z M42.4,25.9c7.9,0,10.6-4,10.6-8.3s-2.7-8.3-10.6-8.3h-8v16.7H42.4z"/>
<path class="st0" d="M101.7,26c0-15.3,10.8-26,25.9-26s25.9,10.6,25.9,26s-10.9,25.9-25.9,25.9S101.7,41.3,101.7,26z M143.9,26
	c0-11.1-7-18-16.2-18s-16.2,6.9-16.2,18s6.9,17.9,16.2,17.9S143.9,37.2,143.9,26z"/>
<path class="st0" d="M188.2,26c0-15.3,10.8-26,25.9-26c15.1,0,26,10.6,26,26s-10.9,25.9-25.9,25.9S188.2,41.3,188.2,26z M230.4,26
	c0-11.1-7-18-16.2-18s-16.2,6.9-16.2,18s6.9,17.9,16.2,17.9S230.4,37.2,230.4,26z"/>
<path class="st0" d="M533.6,26c0-15.3,10.8-26,26-26s25.9,10.6,25.9,26s-10.9,25.9-26,25.9S533.6,41.3,533.6,26z M575.8,26
	c0-11.1-7-18-16.2-18s-16.2,6.9-16.2,18s6.9,17.9,16.2,17.9S575.8,37.2,575.8,26z"/>
<path class="st0" d="M619.1,26c0-15.3,10.8-26,26-26s26,10.6,26,26s-10.9,25.9-26,25.9S619.1,41.3,619.1,26z M661.2,26
	c0-11.1-7-18-16.2-18s-16.2,6.9-16.2,18s6.9,17.9,16.2,17.9S661.2,37.2,661.2,26L661.2,26z"/>
<path class="st0" d="M287.6,43.3h7.4V8.5h-9.3v7.6h-8.6V1h45.4v15.1h-8.6V8.5h-9.3v34.8h7.4v7.5h-24.3V43.3z"/>
<path class="st0" d="M369.3,49.1V36.7h8.5v6.5c2.8,0.7,5.7,1,8.6,1.1c5.3,0,10.3-1.3,10.3-6.2c0-11.4-26.8-5.2-26.8-23.6
	C369.9,4,378.7,0,388.6,0c5.4,0.1,10.8,1,15.9,2.7v12.2h-8.7V8.2c-2.3-0.4-4.7-0.6-7-0.7c-4.8,0-9.7,1.4-9.7,6
	c0,10.6,26.8,4.9,26.8,23.9c0,10.9-8.9,14.4-18.9,14.4C380.9,51.7,375,50.8,369.3,49.1z"/>
<path class="st0" d="M456.5,43.3h6.7V8.5h-6.7V1h40.4v15.3h-8.8V8.6h-15.5v14.7h17.7v7.7h-17.7v12.4h7.1v7.5h-23.3V43.3z"/>
<path class="st0" d="M710.7,43.3h6.7V8.5h-6.7V1h23.7c18.1,0,26.8,10.2,26.8,25s-8.7,24.9-26.8,24.9h-23.7V43.3z M734.4,43.3
	c11.8,0,17-6.6,17-17.3s-5.2-17.4-17-17.4h-7.5v34.8H734.4z"/>
</svg>
